<?xml version="1.0" encoding="utf-8"?><svg version="1.1" id="Layer_1" xmlns="http://www.w3.org/2000/svg" xmlns:xlink="http://www.w3.org/1999/xlink" x="0px" y="0px" viewBox="0 0 122.88 104.48" style="enable-background:new 0 0 122.88 104.48" xml:space="preserve"><style type="text/css"><![CDATA[
	.st0{fill-rule:evenodd;clip-rule:evenodd;}
]]></style><g><path fill="#FFFFFF" class="st0" d="M29.83,91.66V54.73h16.61c7.04,1.26,14.08,5.08,21.12,9.51h12.9c5.84,0.35,8.9,6.27,3.22,10.16 c-4.52,3.32-10.49,3.13-16.61,2.58c-4.22-0.21-4.4,5.46,0,5.48c1.53,0.12,3.19-0.24,4.64-0.24c7.63-0.01,13.92-1.47,17.77-7.5 l1.93-4.51l19.19-9.51c9.6-3.16,16.43,6.88,9.35,13.87c-13.9,10.11-28.15,18.43-42.73,25.15c-10.59,6.44-21.18,6.22-31.76,0 L29.83,91.66L29.83,91.66L29.83,91.66z M113.21,24.34c0.51,0.86,0.79,1.78,0.79,2.73c0,5.06-7.82,9.15-17.46,9.15 c-9.64,0-17.46-4.1-17.46-9.15c0-0.95,0.28-1.87,0.79-2.73c2.22,3.72,8.84,6.42,16.66,6.42C104.37,30.76,110.99,28.06,113.21,24.34 L113.21,24.34L113.21,24.34z M73.64,37.97c0.52,0.87,0.79,1.78,0.79,2.73c0,5.06-7.82,9.15-17.46,9.15 c-9.64,0-17.46-4.1-17.46-9.15c0-0.95,0.28-1.87,0.79-2.73c2.22,3.72,8.84,6.42,16.66,6.42C64.8,44.39,71.42,41.69,73.64,37.97 L73.64,37.97L73.64,37.97z M59.51,24.59l-0.04-2.27c0.52-0.02,0.93-0.18,1.25-0.47c0.33-0.29,0.5-0.64,0.54-1.05 c0.04-0.47-0.12-0.89-0.47-1.25c-0.35-0.36-0.92-0.58-1.69-0.64c-0.72-0.06-1.28,0.05-1.67,0.35c-0.39,0.29-0.61,0.7-0.65,1.22 c-0.05,0.65,0.18,1.25,0.71,1.82l-0.42,1.81l-6.03-1.69l0.52-5.96l2.11,0.18l-0.37,4.26l1.97,0.53c-0.21-0.53-0.29-1.05-0.24-1.58 c0.08-1,0.53-1.82,1.31-2.45c0.79-0.63,1.76-0.9,2.93-0.79c0.97,0.08,1.81,0.44,2.52,1.07c0.97,0.85,1.4,1.96,1.28,3.32 c-0.1,1.08-0.46,1.95-1.1,2.58C61.33,24.2,60.51,24.54,59.51,24.59L59.51,24.59L59.51,24.59z M56.97,15.49 c7.92,0,14.35,2.52,14.35,5.63c0,3.11-6.43,5.63-14.35,5.63s-14.35-2.51-14.35-5.62S49.05,15.49,56.97,15.49L56.97,15.49 L56.97,15.49L56.97,15.49z M56.97,13.63c9.64,0,17.46,4.1,17.46,9.15c0,5.06-7.82,9.15-17.46,9.15c-9.64-0.01-17.46-4.1-17.46-9.15 C39.52,17.73,47.34,13.63,56.97,13.63L56.97,13.63L56.97,13.63z M73.7,28.88c0.47,0.83,0.73,1.72,0.73,2.63 c0,5.06-7.82,9.15-17.46,9.15c-9.64,0-17.46-4.1-17.46-9.15c0-0.92,0.25-1.79,0.73-2.62c2.16,3.77,8.83,6.52,16.72,6.52 C64.87,35.41,71.54,32.66,73.7,28.88L73.7,28.88L73.7,28.88L73.7,28.88z M102.85,5.43l-0.2,2.27l-8.57-0.75 c0.71,0.9,1.19,1.93,1.47,3.08l-2.06-0.18c-0.14-0.61-0.46-1.29-0.93-2.02c-0.48-0.75-1.07-1.27-1.78-1.59l0.16-1.84L102.85,5.43 L102.85,5.43L102.85,5.43L102.85,5.43z M96.54,1.87c7.92,0,14.35,2.52,14.35,5.63c0,3.11-6.43,5.63-14.35,5.63S82.2,10.6,82.2,7.49 C82.2,4.38,88.62,1.87,96.54,1.87L96.54,1.87L96.54,1.87z M96.54,0C106.18,0,114,4.1,114,9.15s-7.82,9.15-17.46,9.15 c-9.64,0-17.46-4.1-17.46-9.15S86.91,0,96.54,0L96.54,0L96.54,0z M113.27,15.25c0.47,0.83,0.73,1.72,0.73,2.62 c0,5.06-7.82,9.15-17.46,9.15c-9.64,0-17.46-4.1-17.46-9.15c0-0.92,0.25-1.79,0.73-2.62c2.15,3.77,8.82,6.52,16.72,6.52 C104.44,21.78,111.12,19.03,113.27,15.25L113.27,15.25L113.27,15.25L113.27,15.25z M113.1,42.99c0.58,0.92,0.9,1.89,0.9,2.91 c0,5.06-7.82,9.15-17.46,9.15c-9.64,0-17.46-4.1-17.46-9.15c0-1.02,0.32-1.99,0.9-2.91c2.32,3.62,8.86,6.24,16.55,6.24 S110.78,46.62,113.1,42.99L113.1,42.99L113.1,42.99z M113.18,33.57c0.53,0.88,0.82,1.81,0.82,2.78c0,5.05-7.82,9.15-17.46,9.15 c-9.64,0-17.46-4.1-17.46-9.15c0-0.97,0.29-1.9,0.82-2.78c2.24,3.7,8.84,6.37,16.64,6.37S110.93,37.27,113.18,33.57L113.18,33.57 L113.18,33.57L113.18,33.57z M0,51.18h24.83v44.18H0V51.18L0,51.18L0,51.18z"/></g></svg>