<?xml version="1.0" encoding="utf-8"?><svg version="1.1" id="Layer_1" xmlns="http://www.w3.org/2000/svg" xmlns:xlink="http://www.w3.org/1999/xlink" x="0px" y="0px" width="122.879px" height="110.266px" viewBox="0 0 122.879 110.266" enable-background="new 0 0 122.879 110.266" xml:space="preserve"><g><path fill="#FFFFFF" d="M2.921,110.266c-1.613,0-2.921-1.086-2.921-2.425s1.308-2.425,2.921-2.425h14.954c0.265-14.405,4.968-27.455,12.439-37.012 c4.651-5.95,10.374-10.556,16.779-13.321c-6.405-2.765-12.127-7.371-16.779-13.321C22.86,32.228,18.161,19.216,17.876,4.85H2.921 C1.308,4.85,0,3.764,0,2.425C0,1.086,1.308,0,2.921,0h117.036c1.615,0,2.922,1.086,2.922,2.425c0,1.339-1.307,2.425-2.922,2.425 h-15.535c-0.285,14.366-4.984,27.378-12.438,36.912c-4.652,5.95-10.375,10.556-16.779,13.321 c6.404,2.766,12.127,7.371,16.779,13.321c7.471,9.557,12.174,22.606,12.439,37.012h15.533c1.615,0,2.922,1.086,2.922,2.425 s-1.307,2.425-2.922,2.425H2.921L2.921,110.266z M24.292,11.909h73.714c0.266-1.972,0.439-3.985,0.518-6.033H23.775 C23.852,7.924,24.026,9.937,24.292,11.909L24.292,11.909z M98.523,104.291c-0.475-12.626-4.643-23.971-11.146-32.288 c-6.754-8.641-16.031-13.986-26.228-13.986s-19.474,5.346-26.229,13.986c-6.502,8.317-10.671,19.662-11.145,32.288H98.523 L98.523,104.291z"/></g></svg>