<svg id="Layer_1" data-name="Layer 1" xmlns="http://www.w3.org/2000/svg" viewBox="0 0 101.51 122.88"><defs><style>.cls-1{fill-rule:evenodd;}</style></defs><title>pipe-leak</title><path fill="#FFFFFF" class="cls-1" d="M12.91,104.84H2.56A2.56,2.56,0,0,1,0,102.28V58.78a2.56,2.56,0,0,1,2.56-2.56H12.91a2.56,2.56,0,0,1,2.56,2.56v43.5a2.56,2.56,0,0,1-2.56,2.56Zm63-19.27C78.59,98,86.64,104.22,86.64,110.44S84,122.88,75.91,122.88s-10.72-6.22-10.72-12.44,8-12.44,10.72-24.87Zm-55-24.29c16.26.17,25.52-1,30.15-5.5,5-4.85,7-15,6.88-35.68H96.5c.18,28.45-4.22,46.38-14.61,59.08l-9.14.1h0l4.38-18L59.36,87.84l11.2.07L69.45,90.2c-12.25,7.7-27.61,9.87-48.56,9.65V61.28ZM53,12.94V2.56A2.56,2.56,0,0,1,55.53,0H99a2.56,2.56,0,0,1,2.56,2.56V12.94A2.56,2.56,0,0,1,99,15.5H55.45a2.56,2.56,0,0,1-2.56-2.56Z"/></svg>