<?xml version="1.0" encoding="utf-8"?><svg version="1.1" id="Layer_1" xmlns="http://www.w3.org/2000/svg" xmlns:xlink="http://www.w3.org/1999/xlink" x="0px" y="0px" width="122.88px" height="88.408px" viewBox="0 0 122.88 88.408" enable-background="new 0 0 122.88 88.408" xml:space="preserve"><g><path fill="#FFFFFF" d="M101.844,50.287H71.92L41.814,78.809c-3.514,3.389-7.347,5.691-11.413,7.199c-3.776,1.4-7.758,2.1-11.869,2.348 c-0.262,0.033-0.529,0.053-0.8,0.053H0v-12.17c5.938,0,11.913-0.068,17.848,0.002c2.901-0.176,5.696-0.668,8.324-1.641 c2.606-0.967,5.046-2.428,7.253-4.561l27.269-25.836L33.425,18.369c-2.208-2.134-4.647-3.593-7.253-4.561 c-2.627-0.974-5.422-1.465-8.324-1.642C11.913,12.238,5.938,12.168,0,12.168V0h17.732c0.271,0,0.539,0.018,0.8,0.052 c4.111,0.247,8.093,0.947,11.869,2.348c4.066,1.508,7.899,3.811,11.412,7.199L71.92,38.12h29.924l-13.1-12.728 c-2.4-2.336-2.453-6.178-0.117-8.58c2.336-2.401,6.178-2.455,8.578-0.119l23.836,23.161l0.008,0.008l0.102,0.103l0.01,0.008 l0.035,0.039l0.072,0.075l0.096,0.106l0.008,0.01l0.002,0.001l0.1,0.116l0.088,0.108l0.01,0.011l0.084,0.109l0.01,0.012 c1.621,2.208,1.621,5.076,0,7.285l-0.01,0.012l-0.084,0.111l-0.01,0.01l-0.088,0.109l-0.1,0.115l-0.002,0.002l-0.008,0.01 l-0.096,0.105l-0.072,0.074l-0.035,0.039l-0.01,0.008l-0.102,0.104l-0.008,0.008l-23.836,23.16c-2.4,2.336-6.242,2.283-8.578-0.117 c-2.336-2.402-2.283-6.244,0.117-8.58L101.844,50.287L101.844,50.287z"/></g></svg>